<svg width="14" height="14" viewBox="0 0 14 14" fill="none" xmlns="http://www.w3.org/2000/svg">
<path d="M9.3999 5H12.9999V11C12.9999 11.9428 12.9999 12.4142 12.707 12.7071C12.4141 13 11.9427 13 10.9999 13H9.3999V5Z" stroke="white" stroke-width="0.8" stroke-linecap="round"/>
<path d="M1 5H4.6V13H3C2.05719 13 1.58579 13 1.29289 12.7071C1 12.4142 1 11.9428 1 11V5Z" stroke="white" stroke-width="0.8" stroke-linecap="round"/>
<rect x="4.6001" y="5" width="4.8" height="8" stroke="white" stroke-width="0.8" stroke-linecap="round"/>
<path d="M1 3C1 2.05719 1 1.58579 1.29289 1.29289C1.58579 1 2.05719 1 3 1H11C11.9428 1 12.4142 1 12.7071 1.29289C13 1.58579 13 2.05719 13 3V5H1V3Z" stroke="white" stroke-width="0.8" stroke-linecap="round"/>
</svg>
