<svg width="20" height="20" viewBox="0 0 20 20" fill="none" xmlns="http://www.w3.org/2000/svg">
<path d="M7.58519 14.5052C7.72762 15.1254 8.04149 15.6734 8.4781 16.0643C8.91471 16.4551 9.44966 16.667 10 16.667C10.5503 16.667 11.0853 16.4551 11.5219 16.0643C11.9585 15.6734 12.2724 15.1254 12.4148 14.5052" stroke="white" stroke-linecap="round"/>
<circle cx="14.5833" cy="5.41699" r="1.25" fill="white"/>
<mask id="mask0_827_4269" style="mask-type:alpha" maskUnits="userSpaceOnUse" x="2" y="1" width="16" height="14">
<path d="M5.3732 6.64118C5.63516 4.2836 7.62791 2.5 10 2.5V2.5C12.3721 2.5 14.3648 4.2836 14.6268 6.64118L14.8366 8.5297C14.9443 9.4985 15.2596 10.4327 15.7611 11.2685L16.2428 12.0714C16.5455 12.5759 16.6969 12.8281 16.7246 13.0315C16.7854 13.4772 16.5412 13.9087 16.1277 14.0858C15.939 14.1667 15.6448 14.1667 15.0565 14.1667H4.94353C4.35515 14.1667 4.06097 14.1667 3.87233 14.0858C3.45885 13.9087 3.21456 13.4772 3.27537 13.0315C3.30311 12.8281 3.45447 12.5759 3.75718 12.0714L4.23888 11.2685C4.74039 10.4327 5.05572 9.4985 5.16337 8.52969L5.3732 6.64118Z" stroke="#CCD2E3" stroke-width="1.5"/>
</mask>
<g mask="url(#mask0_827_4269)">
<path fill-rule="evenodd" clip-rule="evenodd" d="M20 0H0V20H20V0ZM14.5833 7.5C15.7339 7.5 16.6667 6.56726 16.6667 5.41667C16.6667 4.26607 15.7339 3.33333 14.5833 3.33333C13.4327 3.33333 12.5 4.26607 12.5 5.41667C12.5 6.56726 13.4327 7.5 14.5833 7.5Z" fill="white"/>
</g>
</svg>
