<svg width="15" height="15" viewBox="0 0 15 15" fill="none" xmlns="http://www.w3.org/2000/svg">
<path d="M5.55631 9.62673C5.21369 9.66863 4.9699 9.98035 5.01181 10.323C5.05371 10.6656 5.36543 10.9094 5.70805 10.8675C6.05068 10.8256 6.29446 10.5139 6.25256 10.1712C6.21066 9.82861 5.89894 9.58483 5.55631 9.62673Z" fill="white"/>
<path d="M3.46758 7.99321C3.42568 7.65058 3.66946 7.33886 4.01209 7.29696C4.35471 7.25506 4.66643 7.49885 4.70833 7.84147C4.75024 8.18409 4.50645 8.49582 4.16383 8.53772C3.8212 8.57962 3.50948 8.33583 3.46758 7.99321Z" fill="white"/>
<path d="M4.94936 4.66371C4.60673 4.70562 4.36295 5.01734 4.40485 5.35996C4.44675 5.70259 4.75847 5.94637 5.1011 5.90447C5.44372 5.86257 5.68751 5.55085 5.64561 5.20822C5.6037 4.8656 5.29198 4.62181 4.94936 4.66371Z" fill="white"/>
<path d="M9.81083 5.80073C9.76893 5.45811 10.0127 5.14638 10.3553 5.10448C10.698 5.06258 11.0097 5.30637 11.0516 5.64899C11.0935 5.99162 10.8497 6.30334 10.5071 6.34524C10.1645 6.38714 9.85273 6.14336 9.81083 5.80073Z" fill="white"/>
<path d="M7.4954 6.79918C7.15278 6.84108 6.90899 7.1528 6.95089 7.49543C6.99279 7.83805 7.30452 8.08184 7.64714 8.03994C7.98977 7.99804 8.23355 7.68632 8.19165 7.34369C8.14975 7.00107 7.83803 6.75728 7.4954 6.79918Z" fill="white"/>
<path d="M7.12069 4.39816C7.07878 4.05554 7.32257 3.74382 7.66519 3.70191C8.00782 3.66001 8.31954 3.9038 8.36144 4.24642C8.40334 4.58905 8.15956 4.90077 7.81693 4.94267C7.47431 4.98457 7.16259 4.74079 7.12069 4.39816Z" fill="white"/>
<path fill-rule="evenodd" clip-rule="evenodd" d="M1.40808 7.35236C1.48964 3.98786 4.28322 1.32652 7.64771 1.40808C11.0122 1.48964 13.6736 4.28322 13.592 7.64771C13.5868 7.8608 13.5152 8.05546 13.3833 8.21574C13.2571 8.36904 13.0937 8.46956 12.9324 8.53686C12.6187 8.66784 12.2254 8.70892 11.8362 8.71155C10.1558 8.72292 8.69619 10.1683 8.6008 11.873C8.57855 12.2707 8.51072 12.6752 8.33957 12.9931C8.25095 13.1577 8.12646 13.3142 7.95211 13.4276C7.7736 13.5437 7.5689 13.5972 7.35236 13.592C3.98786 13.5104 1.32652 10.7169 1.40808 7.35236ZM7.62499 2.3453C4.77811 2.27629 2.41431 4.5282 2.3453 7.37508C2.27629 10.222 4.5282 12.5858 7.37508 12.6548C7.41764 12.6558 7.43338 12.6466 7.4411 12.6416C7.45297 12.6339 7.4805 12.6111 7.51413 12.5486C7.58748 12.4124 7.64508 12.1724 7.66477 11.8206C7.7863 9.64881 9.62782 7.78896 11.8299 7.77407C12.1812 7.77169 12.4277 7.73166 12.5713 7.67171C12.622 7.65055 12.6457 7.63264 12.6548 7.62451C12.7235 4.77785 10.4717 2.41431 7.62499 2.3453Z" fill="white"/>
</svg>
