<svg width="21" height="21" viewBox="0 0 21 21" fill="none" xmlns="http://www.w3.org/2000/svg">
<path d="M7.875 2.625H7C6.18627 2.625 5.77941 2.625 5.4456 2.71444C4.53973 2.95717 3.83217 3.66473 3.58944 4.5706C3.5 4.90441 3.5 5.31127 3.5 6.125" stroke="white" stroke-linejoin="round"/>
<path d="M13.125 2.625H14C14.8137 2.625 15.2206 2.625 15.5544 2.71444C16.4603 2.95717 17.1678 3.66473 17.4106 4.5706C17.5 4.90441 17.5 5.31127 17.5 6.125" stroke="white" stroke-linejoin="round"/>
<path d="M17.5 13.125V14C17.5 15.6356 17.5 16.4534 17.1483 17.0625C16.9179 17.4616 16.5866 17.7929 16.1875 18.0233C15.5784 18.375 14.7606 18.375 13.125 18.375" stroke="white" stroke-linejoin="round"/>
<path d="M3.5 13.125V14C3.5 15.6356 3.5 16.4534 3.85168 17.0625C4.08208 17.4616 4.41345 17.7929 4.8125 18.0233C5.42163 18.375 6.23942 18.375 7.875 18.375" stroke="white" stroke-linejoin="round"/>
<path d="M2.625 13.125L18.375 13.125" stroke="white" stroke-linecap="round" stroke-linejoin="round"/>
<path d="M6.125 9.875L6.125 13.125L14.875 13.125L14.875 9.875C14.875 8.93219 14.875 8.46079 14.5821 8.16789C14.2892 7.875 13.8178 7.875 12.875 7.875L8.125 7.875C7.18219 7.875 6.71079 7.875 6.41789 8.16789C6.125 8.46079 6.125 8.93219 6.125 9.875Z" stroke="white" stroke-linecap="round" stroke-linejoin="round"/>
</svg>
